<?xml version="1.0" encoding="UTF-8"?>
<svg width="128" height="128" viewBox="0 0 128 128" xmlns="http://www.w3.org/2000/svg">
  <defs>
    <linearGradient id="gradient" x1="0%" y1="0%" x2="100%" y2="100%">
      <stop offset="0%" stop-color="#6200ea" />
      <stop offset="100%" stop-color="#03dac6" />
    </linearGradient>
  </defs>
  <circle cx="64" cy="64" r="60" fill="#1e1e1e" stroke="url(#gradient)" stroke-width="4" />
  <path d="M64 24 L64 104 M32 44 L96 44 M32 74 L96 74" stroke="url(#gradient)" stroke-width="6" stroke-linecap="round" />
  <circle cx="64" cy="44" r="8" fill="url(#gradient)" />
  <circle cx="64" cy="74" r="8" fill="url(#gradient)" />
  <path d="M44 29 L84 29 L84 39 L44 39 Z" fill="url(#gradient)" opacity="0.7" />
  <path d="M44 59 L84 59 L84 69 L44 69 Z" fill="url(#gradient)" opacity="0.7" />
  <path d="M44 89 L84 89 L84 99 L44 99 Z" fill="url(#gradient)" opacity="0.7" />
  <circle cx="64" cy="64" r="28" fill="none" stroke="url(#gradient)" stroke-width="2" stroke-dasharray="5,3" />
  <path d="M92 64 A28 28 0 0 0 64 36" stroke="url(#gradient)" stroke-width="3" fill="none" stroke-linecap="round" />
  <path d="M36 64 A28 28 0 0 0 64 92" stroke="url(#gradient)" stroke-width="3" fill="none" stroke-linecap="round" />
</svg>
